<?xml version="1.0" encoding="UTF-8"?>
<!DOCTYPE svg PUBLIC "-//W3C//DTD SVG 1.1//EN" "http://www.w3.org/Graphics/SVG/1.1/DTD/svg11.dtd">
<!-- Creator: CorelDRAW X7 -->
<svg xmlns="http://www.w3.org/2000/svg" xml:space="preserve" width="131px" height="91px" version="1.1" style="shape-rendering:geometricPrecision; text-rendering:geometricPrecision; image-rendering:optimizeQuality; fill-rule:evenodd; clip-rule:evenodd"
viewBox="0 0 131 91"
 xmlns:xlink="http://www.w3.org/1999/xlink">
 <defs>
  <style type="text/css">
   <![CDATA[
    .str0 {stroke:black;stroke-width:4.99967}
    .fil2 {fill:none}
    .fil1 {fill:black}
    .fil0 {fill:white}
   ]]>
  </style>
 </defs>
 <g id="Слой_x0020_1">
  <metadata id="CorelCorpID_0Corel-Layer"/>
  <g>
   <polygon class="fil0" points="77,18 84,23 110,23 110,73 20,73 20,23 46,23 52,18 "/>
   <path id="1" class="fil1" d="M80 14l6 4 24 0c3,0 5,2 5,5l0 50c0,3 -2,5 -5,5l-90 0c-2,0 -5,-2 -5,-5l0 -50c0,-3 3,-5 5,-5l25 0 4 -4c1,0 2,-1 3,-1l0 0 25 0c2,0 3,1 3,1zm-3 4l7 5 26 0 0 50 -90 0 0 -50 26 0 6 -5 25 0z"/>
  </g>
  <circle class="fil2 str0" cx="65" cy="46" r="15"/>
 </g>
</svg>
