<?xml version="1.0" encoding="UTF-8"?>
<!DOCTYPE svg PUBLIC "-//W3C//DTD SVG 1.1//EN" "http://www.w3.org/Graphics/SVG/1.1/DTD/svg11.dtd">
<!-- Creator: CorelDRAW X7 -->
<svg xmlns="http://www.w3.org/2000/svg" xml:space="preserve" width="70px" height="70px" version="1.1" style="shape-rendering:geometricPrecision; text-rendering:geometricPrecision; image-rendering:optimizeQuality; fill-rule:evenodd; clip-rule:evenodd"
viewBox="0 0 70 70"
 xmlns:xlink="http://www.w3.org/1999/xlink">
 <defs>
  <style type="text/css">
   <![CDATA[
    .fil0 {fill:black;fill-rule:nonzero}
   ]]>
  </style>
 </defs>
 <g id="Слой_x0020_1">
  <metadata id="CorelCorpID_0Corel-Layer"/>
  <g id="_469390792">
   <g>
    <path class="fil0" d="M57 60l-18 -4 1 -5 19 5 1 1 -3 3zm3 -3l1 4 -4 -1 3 -3zm-4 -18l4 18 -4 2 -5 -19 5 -1zm-43 -29l18 4 -1 5 -19 -5 -1 -1 3 -3zm-3 3l-1 -4 4 1 -3 3zm4 18l-4 -18 4 -2 5 19 -5 1z"/>
   </g>
   <g>
    <path class="fil0" d="M27 31l-17 -17 4 -4 17 17 -4 4zm29 29l-17 -17 4 -4 17 17 -4 4z"/>
   </g>
  </g>
  <g>
   <g>
    <path class="fil0" d="M10 57l4 -18 5 1 -5 19 -1 1 -3 -3zm3 3l-4 1 1 -4 3 3zm18 -4l-18 4 -2 -4 19 -5 1 5zm29 -43l-4 18 -5 -1 5 -19 1 -1 3 3zm-3 -3l4 -1 -1 4 -3 -3zm-18 4l18 -4 2 4 -19 5 -1 -5z"/>
   </g>
   <g>
    <path class="fil0" d="M39 27l17 -17 4 4 -17 17 -4 -4zm-29 29l17 -17 4 4 -17 17 -4 -4z"/>
   </g>
  </g>
 </g>
</svg>
