<?xml version="1.0" encoding="UTF-8"?>
<!DOCTYPE svg PUBLIC "-//W3C//DTD SVG 1.1//EN" "http://www.w3.org/Graphics/SVG/1.1/DTD/svg11.dtd">
<!-- Creator: CorelDRAW X7 -->
<svg xmlns="http://www.w3.org/2000/svg" xml:space="preserve" width="70px" height="70px" version="1.1" style="shape-rendering:geometricPrecision; text-rendering:geometricPrecision; image-rendering:optimizeQuality; fill-rule:evenodd; clip-rule:evenodd"
viewBox="0 0 70 70"
 xmlns:xlink="http://www.w3.org/1999/xlink">
 <defs>
  <style type="text/css">
   <![CDATA[
    .fil2 {fill:black}
    .fil1 {fill:white}
    .fil0 {fill:black;fill-rule:nonzero}
   ]]>
  </style>
 </defs>
 <g id="Слой_x0020_1">
  <metadata id="CorelCorpID_0Corel-Layer"/>
  <g>
   <polygon class="fil0" points="43,45 25,32 26,30 45,43 "/>
  </g>
  <g>
   <polygon class="fil0" points="61,28 45,45 43,43 60,26 "/>
  </g>
  <g>
   <path class="fil1" d="M44 39c1,0 2,2 2,3 0,1 -1,2 -2,2 -1,0 -3,-1 -3,-2 0,-1 2,-3 3,-3z"/>
   <path id="1" class="fil2" d="M44 37c1,0 2,1 3,2 1,1 1,2 1,3 0,1 0,2 -1,3 -1,1 -2,1 -3,1 -1,0 -2,0 -3,-1l0 0c-1,-1 -2,-2 -2,-3 0,-1 1,-2 2,-3 1,-1 2,-2 3,-2zm0 2c1,0 2,2 2,3 0,1 -1,2 -2,2 -1,0 -3,-1 -3,-2 0,-1 2,-3 3,-3z"/>
  </g>
  <g>
   <path class="fil1" d="M60 24c2,0 3,1 3,3 0,1 -1,2 -3,2 -1,0 -2,-1 -2,-2 0,-2 1,-3 2,-3z"/>
   <path id="1" class="fil2" d="M60 22c2,0 3,1 4,2 0,0 1,1 1,3 0,1 -1,2 -1,3 -1,1 -2,1 -4,1 -1,0 -2,0 -3,-1 -1,-1 -1,-2 -1,-3 0,-2 0,-3 1,-3l0 0c1,-1 2,-2 3,-2zm0 2c2,0 3,1 3,3 0,1 -1,2 -3,2 -1,0 -2,-1 -2,-2 0,-2 1,-3 2,-3z"/>
  </g>
  <g>
   <polygon class="fil0" points="26,32 10,50 8,48 24,30 "/>
  </g>
  <g>
   <path class="fil1" d="M9 46c1,0 2,1 2,3 0,1 -1,2 -2,2 -2,0 -3,-1 -3,-2 0,-2 1,-3 3,-3z"/>
   <path id="1" class="fil2" d="M9 44c1,0 2,1 3,2 1,0 1,2 1,3 0,1 0,2 -1,3l0 0c-1,1 -2,1 -3,1 -1,0 -3,0 -3,-1 -1,-1 -2,-2 -2,-3 0,-1 1,-3 2,-3 0,-1 2,-2 3,-2zm0 2c1,0 2,1 2,3 0,1 -1,2 -2,2 -2,0 -3,-1 -3,-2 0,-2 1,-3 3,-3z"/>
  </g>
  <g>
   <path class="fil1" d="M25 29c2,0 3,1 3,2 0,2 -1,3 -3,3 -1,0 -2,-1 -2,-3 0,-1 1,-2 2,-2z"/>
   <path id="1" class="fil2" d="M25 27c2,0 3,0 3,1 1,1 2,2 2,3 0,2 -1,3 -2,3 0,1 -1,2 -3,2 -1,0 -2,-1 -3,-2l0 0c-1,0 -1,-1 -1,-3 0,-1 0,-2 1,-3 1,-1 2,-1 3,-1zm0 2c2,0 3,1 3,2 0,2 -1,3 -3,3 -1,0 -2,-1 -2,-3 0,-1 1,-2 2,-2z"/>
  </g>
 </g>
</svg>
