<?xml version="1.0" encoding="UTF-8"?>
<!DOCTYPE svg PUBLIC "-//W3C//DTD SVG 1.1//EN" "http://www.w3.org/Graphics/SVG/1.1/DTD/svg11.dtd">
<!-- Creator: CorelDRAW X7 -->
<svg xmlns="http://www.w3.org/2000/svg" xml:space="preserve" width="70px" height="70px" version="1.1" style="shape-rendering:geometricPrecision; text-rendering:geometricPrecision; image-rendering:optimizeQuality; fill-rule:evenodd; clip-rule:evenodd"
viewBox="0 0 70 70"
 xmlns:xlink="http://www.w3.org/1999/xlink">
 <defs>
  <style type="text/css">
   <![CDATA[
    .fil0 {fill:black;fill-rule:nonzero}
   ]]>
  </style>
 </defs>
 <g id="Слой_x0020_1">
  <metadata id="CorelCorpID_0Corel-Layer"/>
  <g>
   <path class="fil0" d="M23 44l2 -2 3 3 -2 2 -3 -3 0 0zm-7 7l7 -7 3 3 -7 7 -3 -3z"/>
  </g>
  <polygon class="fil0" points="28,56 32,38 14,42 24,46 "/>
  <polygon class="fil0" points="56,28 38,32 42,14 47,23 "/>
  <g>
   <polygon class="fil0" points="42,25 51,16 54,19 45,28 "/>
  </g>
  <g>
   <path class="fil0" d="M44 47l-2 -2 3 -3 2 2 0 0 -3 3zm7 7l-7 -7 3 -3 7 7 -3 3z"/>
  </g>
  <polygon class="fil0" points="56,42 38,38 42,56 47,46 "/>
  <polygon class="fil0" points="28,14 32,32 14,28 24,23 "/>
  <g>
   <polygon class="fil0" points="25,28 16,19 19,16 28,25 "/>
  </g>
 </g>
</svg>
